
<?xml version="1.0" encoding="iso-8859-1"?>
<!-- Uploaded to: SVG Repo, www.svgrepo.com, Generator: SVG Repo Mixer Tools -->
<svg fill="#000000" height="800px" width="800px" version="1.1" id="Layer_1" xmlns="http://www.w3.org/2000/svg" xmlns:xlink="http://www.w3.org/1999/xlink" 
	 viewBox="0 0 512.002 512.002" xml:space="preserve">
<g>
	<g>
		<path d="M368.949,385.482c-32.613,0-59.146-26.533-59.146-59.217l-0.559-80.43c11.657-10.17,17.568-25.43,17.568-45.482
			c0-16.625-0.849-32.004-2.339-46.235l18.406-18.406c14.484-14.484,14.484-38.051,0-52.535L262.69,2.987
			c-3.983-3.983-10.441-3.983-14.425,0l-80.19,80.19c-14.484,14.484-14.484,38.051,0,52.535l18.406,18.406
			c-1.489,14.231-2.339,29.611-2.339,46.235c0,19.603,5.651,34.625,16.794,44.79l0.483,90.394c0,0.078,0.002,0.156,0.004,0.234
			c-4.577,28.455-29.386,49.71-58.373,49.71c-17.211,0-31.214,14.003-31.214,31.214c0,17.211,14.003,31.214,31.214,31.214
			c19.983,0,39.493-4.93,56.901-14.174c-3.098,9.31-5.873,14.468-7.468,16.972c-13.304,3.686-22.858,15.903-22.858,30.081
			c0,17.211,14.003,31.214,31.214,31.214c23.746,0,42.251-16.719,55.16-49.76C268.91,495.282,287.416,512,311.162,512
			c17.211,0,31.214-14.003,31.214-31.214c0-14.178-9.554-26.395-22.857-30.081c-1.596-2.507-4.371-7.665-7.468-16.973
			c17.407,9.244,36.917,14.174,56.9,14.174c17.211,0,31.214-14.003,31.214-31.214C400.164,399.482,386.161,385.482,368.949,385.482z
			 M328.454,97.601c6.532,6.531,6.532,17.156,0.001,23.687l-7.483,7.483c-3.506-20.163-8.329-37.532-13.718-52.37L328.454,97.601z
			 M233.322,59.174c8.302-16.509,16.663-27.475,22.176-33.735c14.986,16.967,50.914,68.735,50.914,174.914
			c0,28.941-14.281,40.217-50.936,40.217s-50.936-11.276-50.936-40.217C204.541,130.977,220.193,85.286,233.322,59.174z
			 M189.983,128.77l-7.483-7.482c-6.531-6.531-6.531-17.156,0-23.687l21.2-21.2C198.311,91.238,193.489,108.607,189.983,128.77z
			 M368.949,427.51c-24.571,0-48.282-8.962-66.766-25.234c-3.281-2.887-8.035-3.364-11.823-1.187
			c-3.788,2.179-5.769,6.527-4.923,10.815c0.732,3.716,1.515,7.324,2.324,10.724c7.286,30.616,15.597,41.359,18.831,44.557
			c1.602,1.584,3.684,2.593,5.921,2.869c5.395,0.666,9.464,5.28,9.464,10.732c0,5.964-4.852,10.815-10.815,10.815
			c-17.542,0-31.538-17.859-41.602-53.082c-1.23-4.305-2.445-9.108-3.609-14.277c-1.048-4.652-5.181-7.956-9.949-7.956
			c-4.768,0-8.901,3.305-9.949,7.956c-1.165,5.168-2.38,9.972-3.609,14.277c-10.065,35.223-24.061,53.082-41.603,53.082
			c-5.964,0-10.815-4.852-10.815-10.815c0-5.451,4.068-10.066,9.464-10.732c2.236-0.276,4.317-1.285,5.921-2.869
			c3.234-3.198,11.544-13.941,18.831-44.556c0.81-3.401,1.592-7.01,2.324-10.726c0.846-4.288-1.134-8.637-4.923-10.815
			c-3.788-2.179-8.542-1.7-11.823,1.187c-18.484,16.273-42.195,25.234-66.766,25.234c-5.963,0-10.815-4.852-10.815-10.815
			s4.852-10.815,10.815-10.815c39.729,0,73.62-29.688,78.834-69.058c0.141-1.063,0.111-2.129-0.076-3.161l-0.413-77.065
			c9.296,2.959,20.47,4.373,34.08,4.373c13.306,0,24.273-1.36,33.443-4.185l0.484,69.551c0,43.861,35.683,79.545,79.545,79.545
			c5.963,0,10.815,4.852,10.815,10.815S374.912,427.51,368.949,427.51z"/>
	</g>
</g>
<g>
	<g>
		<path d="M241.173,309.789c-6.387,0-11.583,5.196-11.583,11.583c0,6.387,5.197,11.583,11.583,11.583
			c6.388,0,11.583-5.196,11.583-11.583C252.756,314.986,247.559,309.789,241.173,309.789z"/>
	</g>
</g>
<g>
	<g>
		<path d="M269.783,309.789c-6.387,0-11.583,5.196-11.583,11.583c0,6.387,5.196,11.583,11.583,11.583
			c6.388,0,11.583-5.196,11.583-11.583C281.366,314.986,276.17,309.789,269.783,309.789z"/>
	</g>
</g>
<g>
	<g>
		<path d="M260.126,56.127c-4.674-3.143-11.011-1.905-14.155,2.769c-0.202,0.3-1.294,1.956-2.96,5.086
			c-2.646,4.972-0.76,11.149,4.213,13.794c1.527,0.812,3.166,1.197,4.781,1.197c3.649,0,7.179-1.963,9.013-5.41
			c1.162-2.184,1.878-3.283,1.877-3.283c0,0,0,0,0,0.001C266.039,65.608,264.8,59.271,260.126,56.127z"/>
	</g>
</g>
<g>
	<g>
		<path d="M242.618,90.375c-5.401-1.602-11.077,1.475-12.681,6.874c-5.523,18.601-9.494,39.656-11.804,62.577
			c-0.565,5.604,3.522,10.605,9.125,11.17c0.348,0.035,0.693,0.052,1.035,0.052c5.173,0,9.606-3.921,10.136-9.178
			c2.181-21.651,5.903-41.439,11.062-58.816C251.096,97.655,248.017,91.978,242.618,90.375z"/>
	</g>
</g>
</svg>